<svg xmlns="http://www.w3.org/2000/svg" xmlns:xlink="http://www.w3.org/1999/xlink" width="480" zoomAndPan="magnify" viewBox="0 0 360 503.999982" height="672" preserveAspectRatio="xMidYMid meet" version="1.2"><defs><clipPath id="bb76455eff"><path d="M 36 53.445312 L 324 53.445312 L 324 450.585938 L 36 450.585938 Z M 36 53.445312 "/></clipPath></defs><g id="9a1181bfa2"><g clip-rule="nonzero" clip-path="url(#bb76455eff)"><path style=" stroke:none;fill-rule:nonzero;fill:#ffffff;fill-opacity:1;" d="M 63.253906 442.230469 L 296.746094 442.230469 C 307.183594 442.230469 315.640625 433.765625 315.640625 423.328125 L 315.640625 80.703125 C 315.640625 70.269531 307.183594 61.804688 296.746094 61.804688 L 63.253906 61.804688 C 52.816406 61.804688 44.355469 70.269531 44.355469 80.703125 L 44.355469 423.328125 C 44.355469 433.765625 52.816406 442.230469 63.253906 442.230469 Z M 305.101562 450.585938 L 54.898438 450.585938 C 44.460938 450.585938 36 442.125 36 431.6875 L 36 72.347656 C 36 61.910156 44.460938 53.449219 54.898438 53.449219 L 305.101562 53.449219 C 315.539062 53.449219 324 61.910156 324 72.347656 L 324 431.6875 C 324 442.125 315.539062 450.585938 305.101562 450.585938 "/></g><path style=" stroke:none;fill-rule:nonzero;fill:#ffffff;fill-opacity:1;" d="M 75.234375 209.460938 L 65.691406 197.214844 C 64.773438 196.039062 64.863281 194.371094 65.902344 193.300781 C 67.113281 192.046875 68.800781 190.433594 69.953125 191.738281 L 75.171875 197.628906 C 76.410156 199.023438 78.609375 198.960938 79.761719 197.492188 L 90.246094 184.132812 C 91.042969 183.113281 92.550781 183.023438 93.460938 183.9375 L 96.476562 186.953125 C 97.601562 188.082031 97.648438 189.890625 96.582031 191.074219 L 79.808594 209.628906 C 78.5625 211.007812 76.375 210.925781 75.234375 209.460938 "/><path style=" stroke:none;fill-rule:nonzero;fill:#ffffff;fill-opacity:1;" d="M 75.234375 268.839844 L 65.691406 256.59375 C 64.773438 255.417969 64.863281 253.746094 65.902344 252.675781 C 67.113281 251.425781 68.800781 249.8125 69.953125 251.117188 L 75.171875 257.007812 C 76.410156 258.40625 78.609375 258.335938 79.761719 256.871094 L 88.863281 245.269531 C 90.394531 243.316406 93.292969 243.144531 95.042969 244.898438 L 96.476562 246.332031 C 97.601562 247.457031 97.648438 249.265625 96.582031 250.449219 L 79.808594 269.007812 C 78.5625 270.386719 76.375 270.304688 75.234375 268.839844 "/><path style=" stroke:none;fill-rule:nonzero;fill:#ffffff;fill-opacity:1;" d="M 75.234375 334.1875 L 65.691406 321.941406 C 64.773438 320.765625 64.863281 319.097656 65.902344 318.027344 C 67.113281 316.777344 68.800781 315.160156 69.953125 316.464844 L 75.171875 322.359375 C 76.410156 323.753906 78.609375 323.6875 79.761719 322.222656 L 88.863281 310.617188 C 90.394531 308.667969 93.292969 308.492188 95.042969 310.25 L 96.476562 311.683594 C 97.601562 312.808594 97.648438 314.617188 96.582031 315.800781 L 79.808594 334.355469 C 78.5625 335.734375 76.375 335.652344 75.234375 334.1875 "/><path style=" stroke:none;fill-rule:nonzero;fill:#ffffff;fill-opacity:1;" d="M 174.886719 133.414062 C 170.390625 137.863281 163.277344 143.203125 159.203125 142.875 C 152.617188 142.34375 144.078125 133.460938 144.078125 133.460938 C 144.078125 133.460938 123.757812 118.902344 135.976562 104.699219 C 144.71875 94.539062 159.207031 110.824219 159.207031 110.824219 C 159.207031 110.824219 172.730469 93.574219 183.324219 99.492188 C 196.074219 106.617188 182.742188 125.644531 174.886719 133.414062 Z M 189.425781 91.648438 C 174.074219 83.070312 159.253906 99.257812 159.253906 99.257812 C 153.671875 94.855469 146.070312 91.300781 138.890625 91.308594 C 127.148438 91.328125 118.382812 103.589844 120.113281 114.863281 C 122.109375 127.871094 135.476562 138.609375 145.15625 146.082031 C 148.152344 148.394531 151.25 150.695312 154.820312 151.964844 C 165.503906 155.75 175.082031 145.84375 181.980469 139.015625 C 193.359375 127.757812 207.898438 101.972656 189.425781 91.648438 "/><path style=" stroke:none;fill-rule:nonzero;fill:#ffffff;fill-opacity:1;" d="M 217.050781 146.386719 C 212.554688 150.839844 205.4375 156.175781 201.363281 155.847656 C 194.78125 155.316406 186.242188 146.433594 186.242188 146.433594 C 186.242188 146.433594 163.316406 131.855469 175.539062 117.65625 C 184.277344 107.496094 201.367188 123.796875 201.367188 123.796875 C 201.367188 123.796875 211.597656 107.777344 222.1875 113.699219 C 234.9375 120.824219 224.902344 138.617188 217.050781 146.386719 Z M 231.589844 104.621094 C 216.242188 96.046875 201.484375 114.410156 201.484375 114.410156 C 195.90625 110.007812 188.234375 104.273438 181.050781 104.285156 C 169.3125 104.300781 160.550781 116.5625 162.277344 127.835938 C 164.269531 140.84375 177.640625 151.582031 187.320312 159.054688 C 190.320312 161.371094 193.417969 163.667969 196.984375 164.9375 C 207.667969 168.726562 217.246094 158.820312 224.148438 151.992188 C 235.523438 140.730469 250.0625 114.945312 231.589844 104.621094 "/><path style=" stroke:none;fill-rule:nonzero;fill:#ffffff;fill-opacity:1;" d="M 283.0625 196.789062 L 116.578125 196.789062 C 113.605469 196.789062 111.195312 194.378906 111.195312 191.410156 C 111.195312 188.4375 113.605469 186.027344 116.578125 186.027344 L 283.0625 186.027344 C 286.035156 186.027344 288.441406 188.4375 288.441406 191.410156 C 288.441406 194.378906 286.035156 196.789062 283.0625 196.789062 "/><path style=" stroke:none;fill-rule:nonzero;fill:#ffffff;fill-opacity:1;" d="M 283.0625 230.765625 L 116.578125 230.765625 C 113.605469 230.765625 111.195312 228.359375 111.195312 225.386719 C 111.195312 222.417969 113.605469 220.007812 116.578125 220.007812 L 283.0625 220.007812 C 286.035156 220.007812 288.441406 222.417969 288.441406 225.386719 C 288.441406 228.359375 286.035156 230.765625 283.0625 230.765625 "/><path style=" stroke:none;fill-rule:nonzero;fill:#ffffff;fill-opacity:1;" d="M 283.0625 264.75 L 116.578125 264.75 C 113.605469 264.75 111.195312 262.339844 111.195312 259.367188 C 111.195312 256.394531 113.605469 253.988281 116.578125 253.988281 L 283.0625 253.988281 C 286.035156 253.988281 288.441406 256.394531 288.441406 259.367188 C 288.441406 262.339844 286.035156 264.75 283.0625 264.75 "/><path style=" stroke:none;fill-rule:nonzero;fill:#ffffff;fill-opacity:1;" d="M 283.0625 298.726562 L 116.578125 298.726562 C 113.605469 298.726562 111.195312 296.320312 111.195312 293.347656 C 111.195312 290.378906 113.605469 287.96875 116.578125 287.96875 L 283.0625 287.96875 C 286.035156 287.96875 288.441406 290.378906 288.441406 293.347656 C 288.441406 296.320312 286.035156 298.726562 283.0625 298.726562 "/><path style=" stroke:none;fill-rule:nonzero;fill:#ffffff;fill-opacity:1;" d="M 283.0625 332.707031 L 116.578125 332.707031 C 113.605469 332.707031 111.195312 330.300781 111.195312 327.328125 C 111.195312 324.355469 113.605469 321.949219 116.578125 321.949219 L 283.0625 321.949219 C 286.035156 321.949219 288.441406 324.355469 288.441406 327.328125 C 288.441406 330.300781 286.035156 332.707031 283.0625 332.707031 "/><path style=" stroke:none;fill-rule:nonzero;fill:#ffffff;fill-opacity:1;" d="M 166.398438 403.285156 L 118.632812 403.285156 C 115.792969 403.285156 113.492188 400.980469 113.492188 398.144531 C 113.492188 395.300781 115.792969 393 118.632812 393 L 166.398438 393 C 169.242188 393 171.539062 395.300781 171.539062 398.144531 C 171.539062 400.980469 169.242188 403.285156 166.398438 403.285156 "/><path style=" stroke:none;fill-rule:nonzero;fill:#ffffff;fill-opacity:1;" d="M 256.21875 355.859375 C 236.265625 353.746094 219.53125 370.480469 221.644531 390.429688 C 223.1875 404.96875 234.871094 416.652344 249.40625 418.195312 C 269.359375 420.3125 286.097656 403.578125 283.980469 383.621094 C 282.4375 369.085938 270.753906 357.402344 256.21875 355.859375 Z M 256.429688 426.511719 C 231.734375 428.710938 211.132812 408.105469 213.332031 383.410156 C 215.023438 364.480469 230.265625 349.238281 249.195312 347.546875 C 273.890625 345.347656 294.496094 365.953125 292.292969 390.648438 C 290.605469 409.578125 275.359375 424.820312 256.429688 426.511719 "/><path style=" stroke:none;fill-rule:nonzero;fill:#ffffff;fill-opacity:1;" d="M 272.972656 390.945312 C 271.269531 390.382812 270.242188 388.691406 270.226562 386.898438 C 270.15625 377.398438 262.445312 369.683594 252.945312 369.613281 C 251.148438 369.601562 249.457031 368.574219 248.898438 366.867188 C 247.945312 363.988281 250.070312 361.320312 252.8125 361.320312 C 266.988281 361.320312 278.523438 372.851562 278.523438 387.027344 C 278.523438 389.773438 275.855469 391.898438 272.972656 390.945312 "/><path style=" stroke:none;fill-rule:nonzero;fill:#ffffff;fill-opacity:1;" d="M 252.8125 412.738281 C 238.679688 412.738281 227.167969 401.269531 227.105469 387.148438 C 227.09375 385.148438 228.484375 383.324219 230.453125 382.957031 C 233.09375 382.46875 235.398438 384.480469 235.398438 387.027344 C 235.398438 396.613281 243.179688 404.414062 252.753906 404.441406 C 254.851562 404.449219 256.707031 406.042969 256.933594 408.128906 C 257.207031 410.625 255.253906 412.738281 252.8125 412.738281 "/></g></svg>