<svg xmlns="http://www.w3.org/2000/svg" xmlns:xlink="http://www.w3.org/1999/xlink" width="480" zoomAndPan="magnify" viewBox="0 0 360 503.999982" height="672" preserveAspectRatio="xMidYMid meet" version="1.2"><defs><clipPath id="e9a73bcfbb"><path d="M 108 152.71875 L 252 152.71875 L 252 351.289062 L 108 351.289062 Z M 108 152.71875 "/></clipPath></defs><g id="abf7010a29"><g clip-rule="nonzero" clip-path="url(#e9a73bcfbb)"><path style=" stroke:none;fill-rule:nonzero;fill:#ffffff;fill-opacity:1;" d="M 121.628906 347.113281 L 238.371094 347.113281 C 243.589844 347.113281 247.820312 342.878906 247.820312 337.660156 L 247.820312 166.347656 C 247.820312 161.132812 243.589844 156.898438 238.371094 156.898438 L 121.628906 156.898438 C 116.410156 156.898438 112.175781 161.132812 112.175781 166.347656 L 112.175781 337.660156 C 112.175781 342.878906 116.410156 347.113281 121.628906 347.113281 Z M 242.550781 351.289062 L 117.449219 351.289062 C 112.230469 351.289062 108 347.058594 108 341.839844 L 108 162.171875 C 108 156.953125 112.230469 152.722656 117.449219 152.722656 L 242.550781 152.722656 C 247.769531 152.722656 252 156.953125 252 162.171875 L 252 341.839844 C 252 347.058594 247.769531 351.289062 242.550781 351.289062 "/></g><path style=" stroke:none;fill-rule:nonzero;fill:#ffffff;fill-opacity:1;" d="M 127.617188 230.726562 L 122.84375 224.605469 C 122.386719 224.015625 122.433594 223.183594 122.949219 222.648438 C 123.558594 222.019531 124.398438 221.214844 124.976562 221.867188 L 127.585938 224.8125 C 128.203125 225.507812 129.304688 225.476562 129.878906 224.742188 L 135.121094 218.0625 C 135.523438 217.554688 136.273438 217.507812 136.730469 217.964844 L 138.238281 219.472656 C 138.800781 220.039062 138.824219 220.941406 138.292969 221.535156 L 129.902344 230.8125 C 129.28125 231.5 128.1875 231.460938 127.617188 230.726562 "/><path style=" stroke:none;fill-rule:nonzero;fill:#ffffff;fill-opacity:1;" d="M 127.617188 260.417969 L 122.84375 254.292969 C 122.386719 253.707031 122.433594 252.871094 122.949219 252.335938 C 123.558594 251.710938 124.398438 250.902344 124.976562 251.554688 L 127.585938 254.5 C 128.203125 255.199219 129.304688 255.164062 129.878906 254.433594 L 134.433594 248.632812 C 135.199219 247.65625 136.644531 247.570312 137.523438 248.445312 L 138.238281 249.164062 C 138.800781 249.726562 138.824219 250.628906 138.292969 251.222656 L 129.902344 260.5 C 129.28125 261.191406 128.1875 261.148438 127.617188 260.417969 "/><path style=" stroke:none;fill-rule:nonzero;fill:#ffffff;fill-opacity:1;" d="M 127.617188 293.089844 L 122.84375 286.96875 C 122.386719 286.378906 122.433594 285.546875 122.949219 285.011719 C 123.558594 284.386719 124.398438 283.578125 124.976562 284.230469 L 127.585938 287.175781 C 128.203125 287.875 129.304688 287.839844 129.878906 287.105469 L 134.433594 281.304688 C 135.199219 280.332031 136.644531 280.242188 137.523438 281.121094 L 138.238281 281.839844 C 138.800781 282.402344 138.824219 283.304688 138.292969 283.898438 L 129.902344 293.175781 C 129.28125 293.863281 128.1875 293.824219 127.617188 293.089844 "/><path style=" stroke:none;fill-rule:nonzero;fill:#ffffff;fill-opacity:1;" d="M 177.441406 192.703125 C 175.195312 194.929688 171.636719 197.597656 169.601562 197.433594 C 166.308594 197.167969 162.039062 192.726562 162.039062 192.726562 C 162.039062 192.726562 151.878906 185.449219 157.988281 178.347656 C 162.359375 173.265625 169.601562 181.410156 169.601562 181.410156 C 169.601562 181.410156 176.363281 172.785156 181.664062 175.742188 C 188.035156 179.304688 181.371094 188.820312 177.441406 192.703125 Z M 184.714844 171.820312 C 177.039062 167.53125 169.625 175.625 169.625 175.625 C 166.835938 173.425781 163.035156 171.648438 159.445312 171.652344 C 153.574219 171.660156 149.191406 177.789062 150.054688 183.429688 C 151.054688 189.933594 157.738281 195.300781 162.578125 199.039062 C 164.078125 200.195312 165.625 201.34375 167.410156 201.976562 C 172.75 203.871094 177.539062 198.917969 180.992188 195.503906 C 186.679688 189.875 193.949219 176.984375 184.714844 171.820312 "/><path style=" stroke:none;fill-rule:nonzero;fill:#ffffff;fill-opacity:1;" d="M 198.527344 199.191406 C 196.277344 201.414062 192.71875 204.085938 190.683594 203.921875 C 187.390625 203.65625 183.121094 199.214844 183.121094 199.214844 C 183.121094 199.214844 171.65625 191.925781 177.769531 184.824219 C 182.140625 179.746094 190.683594 187.894531 190.683594 187.894531 C 190.683594 187.894531 195.796875 179.886719 201.09375 182.847656 C 207.46875 186.410156 202.453125 195.304688 198.527344 199.191406 Z M 205.792969 178.308594 C 198.121094 174.019531 190.742188 183.203125 190.742188 183.203125 C 187.953125 181 184.117188 178.132812 180.527344 178.140625 C 174.65625 178.148438 170.273438 184.277344 171.140625 189.914062 C 172.136719 196.417969 178.820312 201.789062 183.660156 205.523438 C 185.160156 206.683594 186.707031 207.832031 188.492188 208.464844 C 193.835938 210.359375 198.621094 205.40625 202.074219 201.992188 C 207.761719 196.363281 215.03125 183.46875 205.792969 178.308594 "/><path style=" stroke:none;fill-rule:nonzero;fill:#ffffff;fill-opacity:1;" d="M 231.53125 224.390625 L 148.289062 224.390625 C 146.800781 224.390625 145.597656 223.1875 145.597656 221.703125 C 145.597656 220.214844 146.800781 219.011719 148.289062 219.011719 L 231.53125 219.011719 C 233.019531 219.011719 234.222656 220.214844 234.222656 221.703125 C 234.222656 223.1875 233.019531 224.390625 231.53125 224.390625 "/><path style=" stroke:none;fill-rule:nonzero;fill:#ffffff;fill-opacity:1;" d="M 231.53125 241.378906 L 148.289062 241.378906 C 146.800781 241.378906 145.597656 240.175781 145.597656 238.691406 C 145.597656 237.207031 146.800781 236 148.289062 236 L 231.53125 236 C 233.019531 236 234.222656 237.207031 234.222656 238.691406 C 234.222656 240.175781 233.019531 241.378906 231.53125 241.378906 "/><path style=" stroke:none;fill-rule:nonzero;fill:#ffffff;fill-opacity:1;" d="M 231.53125 258.371094 L 148.289062 258.371094 C 146.800781 258.371094 145.597656 257.167969 145.597656 255.679688 C 145.597656 254.195312 146.800781 252.992188 148.289062 252.992188 L 231.53125 252.992188 C 233.019531 252.992188 234.222656 254.195312 234.222656 255.679688 C 234.222656 257.167969 233.019531 258.371094 231.53125 258.371094 "/><path style=" stroke:none;fill-rule:nonzero;fill:#ffffff;fill-opacity:1;" d="M 231.53125 275.359375 L 148.289062 275.359375 C 146.800781 275.359375 145.597656 274.15625 145.597656 272.671875 C 145.597656 271.1875 146.800781 269.980469 148.289062 269.980469 L 231.53125 269.980469 C 233.019531 269.980469 234.222656 271.1875 234.222656 272.671875 C 234.222656 274.15625 233.019531 275.359375 231.53125 275.359375 "/><path style=" stroke:none;fill-rule:nonzero;fill:#ffffff;fill-opacity:1;" d="M 231.53125 292.351562 L 148.289062 292.351562 C 146.800781 292.351562 145.597656 291.148438 145.597656 289.660156 C 145.597656 288.175781 146.800781 286.972656 148.289062 286.972656 L 231.53125 286.972656 C 233.019531 286.972656 234.222656 288.175781 234.222656 289.660156 C 234.222656 291.148438 233.019531 292.351562 231.53125 292.351562 "/><path style=" stroke:none;fill-rule:nonzero;fill:#ffffff;fill-opacity:1;" d="M 173.199219 327.640625 L 149.316406 327.640625 C 147.894531 327.640625 146.746094 326.488281 146.746094 325.070312 C 146.746094 323.648438 147.894531 322.496094 149.316406 322.496094 L 173.199219 322.496094 C 174.621094 322.496094 175.769531 323.648438 175.769531 325.070312 C 175.769531 326.488281 174.621094 327.640625 173.199219 327.640625 "/><path style=" stroke:none;fill-rule:nonzero;fill:#ffffff;fill-opacity:1;" d="M 218.109375 303.925781 C 208.132812 302.871094 199.765625 311.238281 200.824219 321.210938 C 201.59375 328.480469 207.433594 334.324219 214.703125 335.09375 C 224.679688 336.152344 233.046875 327.785156 231.988281 317.808594 C 231.21875 310.539062 225.375 304.699219 218.109375 303.925781 Z M 218.214844 339.253906 C 205.867188 340.351562 195.566406 330.050781 196.667969 317.703125 C 197.511719 308.238281 205.132812 300.617188 214.597656 299.769531 C 226.945312 298.671875 237.246094 308.972656 236.144531 321.320312 C 235.304688 330.785156 227.679688 338.40625 218.214844 339.253906 "/><path style=" stroke:none;fill-rule:nonzero;fill:#ffffff;fill-opacity:1;" d="M 226.484375 321.46875 C 225.632812 321.1875 225.121094 320.34375 225.113281 319.445312 C 225.078125 314.695312 221.222656 310.839844 216.472656 310.804688 C 215.574219 310.796875 214.730469 310.285156 214.449219 309.429688 C 213.972656 307.992188 215.035156 306.65625 216.40625 306.65625 C 223.492188 306.65625 229.261719 312.421875 229.261719 319.511719 C 229.261719 320.882812 227.929688 321.945312 226.484375 321.46875 "/><path style=" stroke:none;fill-rule:nonzero;fill:#ffffff;fill-opacity:1;" d="M 216.40625 332.367188 C 209.339844 332.367188 203.585938 326.632812 203.554688 319.570312 C 203.546875 318.570312 204.242188 317.660156 205.226562 317.476562 C 206.546875 317.230469 207.699219 318.238281 207.699219 319.511719 C 207.699219 324.304688 211.589844 328.203125 216.378906 328.21875 C 217.425781 328.222656 218.355469 329.019531 218.464844 330.0625 C 218.601562 331.308594 217.628906 332.367188 216.40625 332.367188 "/></g></svg>