<svg xmlns="http://www.w3.org/2000/svg" xmlns:xlink="http://www.w3.org/1999/xlink" width="480" zoomAndPan="magnify" viewBox="0 0 360 503.999982" height="672" preserveAspectRatio="xMidYMid meet" version="1.2"><defs><clipPath id="74dbf0bb16"><path d="M 10.523438 18.328125 L 349.28125 18.328125 L 349.28125 485.453125 L 10.523438 485.453125 Z M 10.523438 18.328125 "/></clipPath></defs><g id="fa1d8685d5"><g clip-rule="nonzero" clip-path="url(#74dbf0bb16)"><path style=" stroke:none;fill-rule:nonzero;fill:#f9cca5;fill-opacity:1;" d="M 42.582031 475.625 L 317.222656 475.625 C 329.496094 475.625 339.449219 465.671875 339.449219 453.394531 L 339.449219 50.390625 C 339.449219 38.113281 329.496094 28.160156 317.222656 28.160156 L 42.582031 28.160156 C 30.308594 28.160156 20.351562 38.113281 20.351562 50.390625 L 20.351562 453.394531 C 20.351562 465.671875 30.308594 475.625 42.582031 475.625 Z M 327.046875 485.453125 L 32.75 485.453125 C 20.480469 485.453125 10.523438 475.503906 10.523438 463.226562 L 10.523438 40.558594 C 10.523438 28.28125 20.480469 18.332031 32.75 18.332031 L 327.046875 18.332031 C 339.324219 18.332031 349.28125 28.28125 349.28125 40.558594 L 349.28125 463.226562 C 349.28125 475.503906 339.324219 485.453125 327.046875 485.453125 "/></g><path style=" stroke:none;fill-rule:nonzero;fill:#f9cca5;fill-opacity:1;" d="M 56.671875 201.839844 L 45.445312 187.433594 C 44.367188 186.050781 44.476562 184.085938 45.695312 182.828125 C 47.121094 181.355469 49.105469 179.457031 50.464844 180.992188 L 56.597656 187.917969 C 58.054688 189.5625 60.644531 189.488281 61.996094 187.761719 L 74.328125 172.042969 C 75.269531 170.847656 77.039062 170.738281 78.113281 171.8125 L 81.660156 175.363281 C 82.984375 176.6875 83.039062 178.816406 81.785156 180.207031 L 62.054688 202.035156 C 60.585938 203.65625 58.015625 203.5625 56.671875 201.839844 "/><path style=" stroke:none;fill-rule:nonzero;fill:#f9cca5;fill-opacity:1;" d="M 56.671875 271.679688 L 45.445312 257.277344 C 44.367188 255.894531 44.476562 253.925781 45.695312 252.667969 C 47.121094 251.199219 49.105469 249.296875 50.464844 250.835938 L 56.597656 257.761719 C 58.054688 259.40625 60.644531 259.328125 61.996094 257.601562 L 72.707031 243.957031 C 74.507812 241.660156 77.914062 241.457031 79.972656 243.519531 L 81.660156 245.207031 C 82.984375 246.527344 83.039062 248.660156 81.785156 250.046875 L 62.054688 271.875 C 60.585938 273.5 58.015625 273.40625 56.671875 271.679688 "/><path style=" stroke:none;fill-rule:nonzero;fill:#f9cca5;fill-opacity:1;" d="M 56.671875 348.546875 L 45.445312 334.140625 C 44.367188 332.757812 44.476562 330.796875 45.695312 329.535156 C 47.121094 328.066406 49.105469 326.164062 50.464844 327.699219 L 56.597656 334.628906 C 58.054688 336.273438 60.644531 336.195312 61.996094 334.46875 L 72.707031 320.820312 C 74.507812 318.527344 77.914062 318.320312 79.972656 320.386719 L 81.660156 322.074219 C 82.984375 323.398438 83.039062 325.527344 81.785156 326.917969 L 62.054688 348.742188 C 60.585938 350.363281 58.015625 350.269531 56.671875 348.546875 "/><path style=" stroke:none;fill-rule:nonzero;fill:#f9cca5;fill-opacity:1;" d="M 173.886719 112.390625 C 168.601562 117.625 160.230469 123.902344 155.441406 123.515625 C 147.695312 122.894531 137.648438 112.445312 137.648438 112.445312 C 137.648438 112.445312 113.746094 95.316406 128.121094 78.613281 C 138.402344 66.664062 155.445312 85.816406 155.445312 85.816406 C 155.445312 85.816406 171.351562 65.527344 183.8125 72.488281 C 198.808594 80.867188 183.125 103.25 173.886719 112.390625 Z M 190.988281 63.261719 C 172.933594 53.171875 155.5 72.214844 155.5 72.214844 C 148.933594 67.035156 139.992188 62.851562 131.546875 62.863281 C 117.738281 62.882812 107.425781 77.304688 109.460938 90.566406 C 111.808594 105.867188 127.53125 118.5 138.917969 127.289062 C 142.445312 130.011719 146.085938 132.71875 150.285156 134.207031 C 162.851562 138.660156 174.117188 127.007812 182.234375 118.980469 C 195.617188 105.734375 212.71875 75.40625 190.988281 63.261719 "/><path style=" stroke:none;fill-rule:nonzero;fill:#f9cca5;fill-opacity:1;" d="M 223.484375 127.648438 C 218.195312 132.882812 209.824219 139.160156 205.03125 138.777344 C 197.289062 138.152344 187.246094 127.703125 187.246094 127.703125 C 187.246094 127.703125 160.277344 110.558594 174.65625 93.851562 C 184.933594 81.902344 205.035156 101.078125 205.035156 101.078125 C 205.035156 101.078125 217.066406 82.234375 229.527344 89.199219 C 244.519531 97.582031 232.71875 118.507812 223.484375 127.648438 Z M 240.582031 78.523438 C 222.53125 68.433594 205.175781 90.035156 205.175781 90.035156 C 198.613281 84.859375 189.585938 78.113281 181.136719 78.128906 C 167.328125 78.144531 157.023438 92.570312 159.058594 105.824219 C 161.398438 121.128906 177.125 133.761719 188.511719 142.546875 C 192.039062 145.269531 195.683594 147.976562 199.882812 149.464844 C 212.445312 153.925781 223.710938 142.273438 231.828125 134.242188 C 245.210938 120.992188 262.3125 90.664062 240.582031 78.523438 "/><path style=" stroke:none;fill-rule:nonzero;fill:#f9cca5;fill-opacity:1;" d="M 301.128906 186.929688 L 105.300781 186.929688 C 101.804688 186.929688 98.972656 184.097656 98.972656 180.601562 C 98.972656 177.105469 101.804688 174.273438 105.300781 174.273438 L 301.128906 174.273438 C 304.625 174.273438 307.457031 177.105469 307.457031 180.601562 C 307.457031 184.097656 304.625 186.929688 301.128906 186.929688 "/><path style=" stroke:none;fill-rule:nonzero;fill:#f9cca5;fill-opacity:1;" d="M 301.128906 226.898438 L 105.300781 226.898438 C 101.804688 226.898438 98.972656 224.066406 98.972656 220.570312 C 98.972656 217.078125 101.804688 214.242188 105.300781 214.242188 L 301.128906 214.242188 C 304.625 214.242188 307.457031 217.078125 307.457031 220.570312 C 307.457031 224.066406 304.625 226.898438 301.128906 226.898438 "/><path style=" stroke:none;fill-rule:nonzero;fill:#f9cca5;fill-opacity:1;" d="M 301.128906 266.867188 L 105.300781 266.867188 C 101.804688 266.867188 98.972656 264.035156 98.972656 260.539062 C 98.972656 257.042969 101.804688 254.210938 105.300781 254.210938 L 301.128906 254.210938 C 304.625 254.210938 307.457031 257.042969 307.457031 260.539062 C 307.457031 264.035156 304.625 266.867188 301.128906 266.867188 "/><path style=" stroke:none;fill-rule:nonzero;fill:#f9cca5;fill-opacity:1;" d="M 301.128906 306.835938 L 105.300781 306.835938 C 101.804688 306.835938 98.972656 304.003906 98.972656 300.507812 C 98.972656 297.015625 101.804688 294.179688 105.300781 294.179688 L 301.128906 294.179688 C 304.625 294.179688 307.457031 297.015625 307.457031 300.507812 C 307.457031 304.003906 304.625 306.835938 301.128906 306.835938 "/><path style=" stroke:none;fill-rule:nonzero;fill:#f9cca5;fill-opacity:1;" d="M 301.128906 346.804688 L 105.300781 346.804688 C 101.804688 346.804688 98.972656 343.972656 98.972656 340.476562 C 98.972656 336.980469 101.804688 334.148438 105.300781 334.148438 L 301.128906 334.148438 C 304.625 334.148438 307.457031 336.980469 307.457031 340.476562 C 307.457031 343.972656 304.625 346.804688 301.128906 346.804688 "/><path style=" stroke:none;fill-rule:nonzero;fill:#f9cca5;fill-opacity:1;" d="M 163.90625 429.820312 L 107.71875 429.820312 C 104.378906 429.820312 101.671875 427.109375 101.671875 423.769531 C 101.671875 420.429688 104.378906 417.722656 107.71875 417.722656 L 163.90625 417.722656 C 167.246094 417.722656 169.953125 420.429688 169.953125 423.769531 C 169.953125 427.109375 167.246094 429.820312 163.90625 429.820312 "/><path style=" stroke:none;fill-rule:nonzero;fill:#f9cca5;fill-opacity:1;" d="M 269.550781 374.035156 C 246.085938 371.550781 226.402344 391.234375 228.886719 414.699219 C 230.699219 431.796875 244.441406 445.542969 261.542969 447.355469 C 285.007812 449.84375 304.695312 430.160156 302.207031 406.691406 C 300.394531 389.59375 286.648438 375.847656 269.550781 374.035156 Z M 269.800781 457.136719 C 240.753906 459.722656 216.523438 435.492188 219.109375 406.441406 C 221.097656 384.175781 239.027344 366.246094 261.292969 364.261719 C 290.339844 361.671875 314.574219 385.90625 311.984375 414.953125 C 310 437.222656 292.066406 455.148438 269.800781 457.136719 "/><path style=" stroke:none;fill-rule:nonzero;fill:#f9cca5;fill-opacity:1;" d="M 289.257812 415.304688 C 287.257812 414.640625 286.046875 412.65625 286.03125 410.546875 C 285.949219 399.371094 276.875 390.292969 265.699219 390.214844 C 263.585938 390.199219 261.601562 388.992188 260.941406 386.984375 C 259.824219 383.59375 262.320312 380.457031 265.546875 380.457031 C 282.21875 380.457031 295.789062 394.023438 295.789062 410.695312 C 295.789062 413.925781 292.652344 416.425781 289.257812 415.304688 "/><path style=" stroke:none;fill-rule:nonzero;fill:#f9cca5;fill-opacity:1;" d="M 265.546875 440.9375 C 248.921875 440.9375 235.382812 427.449219 235.308594 410.839844 C 235.296875 408.488281 236.933594 406.339844 239.246094 405.910156 C 242.351562 405.332031 245.0625 407.699219 245.0625 410.695312 C 245.0625 421.96875 254.214844 431.144531 265.480469 431.179688 C 267.945312 431.1875 270.128906 433.0625 270.394531 435.519531 C 270.714844 438.453125 268.417969 440.9375 265.546875 440.9375 "/></g></svg>